<svg width="36" height="36" viewBox="0 0 36 36" fill="none" xmlns="http://www.w3.org/2000/svg">
<path d="M11.55 36C8.35 36 5.625 34.875 3.375 32.625C1.125 30.375 0 27.65 0 24.45V11.55C0 8.35 1.125 5.625 3.375 3.375C5.625 1.125 8.35 0 11.55 0H24.45C27.65 0 30.375 1.125 32.625 3.375C34.875 5.625 36 8.35 36 11.55V24.45C36 27.65 34.875 30.375 32.625 32.625C30.375 34.875 27.65 36 24.45 36H11.55Z" fill="black"/>
<path d="M15.95 25.7501L27.95 13.7501L25.7999 11.6001L15.95 21.4501L11.1 16.6001L8.94995 18.7501L15.95 25.7501Z" fill="white"/>
</svg>
