<svg width="36" height="36" viewBox="0 0 36 36" fill="none" xmlns="http://www.w3.org/2000/svg">
<path d="M11.55 36C8.35 36 5.625 34.875 3.375 32.625C1.125 30.375 0 27.65 0 24.45V11.55C0 8.35 1.125 5.625 3.375 3.375C5.625 1.125 8.35 0 11.55 0H24.45C27.65 0 30.375 1.125 32.625 3.375C34.875 5.625 36 8.35 36 11.55V24.45C36 27.65 34.875 30.375 32.625 32.625C30.375 34.875 27.65 36 24.45 36H11.55ZM11.55 33H24.45C26.8167 33 28.8333 32.1667 30.5 30.5C32.1667 28.8333 33 26.8167 33 24.45V11.55C33 9.18333 32.1667 7.16667 30.5 5.5C28.8333 3.83333 26.8167 3 24.45 3H11.55C9.18333 3 7.16667 3.83333 5.5 5.5C3.83333 7.16667 3 9.18333 3 11.55V24.45C3 26.8167 3.83333 28.8333 5.5 30.5C7.16667 32.1667 9.18333 33 11.55 33Z" fill="black"/>
</svg>
